<?xml version="1.0" standalone="no"?>
<!DOCTYPE svg PUBLIC "-//W3C//DTD SVG 20010904//EN"
 "http://www.w3.org/TR/2001/REC-SVG-20010904/DTD/svg10.dtd">
<svg version="1.0" xmlns="http://www.w3.org/2000/svg"
 width="2048.000000pt" height="2048.000000pt" viewBox="0 0 2048.000000 2048.000000"
 preserveAspectRatio="xMidYMid meet">
<metadata>
Created by potrace 1.16, written by Peter Selinger 2001-2019
</metadata>
<g transform="translate(0.000000,2048.000000) scale(0.100000,-0.100000)"
fill="#000000" stroke="none">
<path d="M0 10240 l0 -10240 10240 0 10240 0 0 10240 0 10240 -10240 0 -10240
0 0 -10240z m11030 8637 l0 -62 -62 -45 c-70 -50 -253 -228 -315 -305 -151
-189 -284 -445 -364 -700 -12 -38 -25 -79 -29 -90 -4 -11 -12 -38 -18 -60 -6
-22 -15 -58 -21 -80 -18 -71 -37 -198 -51 -345 -18 -182 -9 -580 14 -632 7
-16 1 -18 -59 -18 l-66 0 5 298 c5 324 18 473 55 642 5 25 14 68 19 95 6 28
16 68 22 90 6 22 15 56 20 75 34 145 152 429 240 575 20 34 39 68 42 75 29 75
275 342 394 427 118 85 169 121 172 122 1 1 2 -27 2 -62z m-712 -181 c-7 -8
-15 -12 -17 -11 -5 6 10 25 20 25 5 0 4 -6 -3 -14z m2696 -455 c22 -5 73 -15
111 -21 39 -7 84 -16 100 -20 17 -5 50 -14 75 -21 122 -32 180 -51 275 -89
211 -84 352 -160 339 -183 -70 -119 -244 -338 -414 -521 -154 -166 -447 -400
-636 -507 -169 -96 -262 -142 -381 -190 -13 -5 -33 -13 -45 -18 -13 -5 -41
-15 -63 -22 -22 -6 -48 -15 -57 -20 -10 -5 -27 -9 -37 -9 -11 0 -23 -4 -26
-10 -3 -5 -19 -10 -35 -10 -16 0 -31 -4 -34 -9 -3 -4 -22 -11 -43 -14 -21 -4
-58 -11 -83 -17 -70 -17 -130 -29 -195 -40 -33 -5 -85 -15 -115 -20 -52 -11
-122 -22 -218 -36 -24 -4 -53 -2 -65 3 -12 6 -40 15 -62 21 -22 6 -59 15 -81
21 -54 14 -290 14 -351 0 -94 -22 -128 -31 -145 -40 -10 -5 -22 -9 -28 -9 -5
0 -34 -11 -64 -25 -30 -14 -60 -25 -65 -25 -24 0 -9 29 32 63 23 19 71 63 107
97 80 77 283 241 370 300 36 24 81 56 100 71 32 25 235 149 244 149 2 0 33 17
67 38 82 49 396 202 414 202 2 0 33 13 67 28 35 16 90 39 123 51 33 13 69 27
80 31 11 5 49 18 85 30 36 12 74 25 85 30 11 4 40 13 65 20 25 7 56 16 70 21
14 5 52 16 85 25 33 9 76 20 95 26 52 14 109 27 165 38 133 24 191 46 233 87
16 17 22 34 22 69 0 39 -5 51 -35 81 -35 35 -35 35 -108 30 -39 -3 -96 -11
-124 -17 -29 -5 -74 -14 -100 -19 -53 -11 -109 -24 -163 -40 -19 -5 -69 -18
-110 -29 -72 -19 -334 -103 -375 -121 -11 -5 -36 -14 -55 -21 -40 -14 -64 -23
-102 -39 -16 -6 -38 -15 -50 -20 -143 -55 -423 -200 -638 -329 -227 -137 -599
-410 -662 -487 -9 -11 -19 -17 -23 -14 -5 6 33 134 55 184 4 11 17 40 27 65
64 157 189 365 303 505 74 90 246 256 330 318 36 27 78 58 93 70 54 41 273
157 372 196 11 5 31 13 45 19 67 29 250 81 355 101 92 17 190 31 245 35 93 6
510 -4 554 -13z m-4544 -153 c148 -47 332 -129 485 -217 84 -49 234 -169 330
-266 154 -156 253 -293 330 -460 86 -186 129 -341 139 -500 2 -38 7 -77 10
-86 5 -12 -2 -20 -24 -29 -27 -11 -40 -10 -103 10 -40 13 -100 36 -135 52 -34
15 -65 28 -69 28 -13 0 -271 132 -328 167 -67 42 -196 138 -235 175 -58 54
-136 148 -189 227 -50 75 -144 255 -174 331 -5 14 -13 33 -18 42 -5 10 -9 25
-9 33 0 8 -4 23 -9 33 -14 27 -63 203 -80 287 -5 28 -15 74 -20 103 -6 30 -11
65 -11 78 0 28 -8 29 110 -8z m-565 -1038 c22 -5 56 -13 75 -19 60 -17 114
-32 138 -38 12 -3 25 -9 28 -14 3 -5 15 -9 28 -9 12 0 26 -4 32 -8 5 -4 27
-14 49 -21 53 -17 160 -56 215 -79 14 -5 52 -20 85 -32 122 -45 144 -57 308
-179 28 -21 68 -48 87 -59 19 -11 64 -37 100 -59 36 -21 76 -43 90 -49 14 -7
45 -21 70 -32 112 -50 139 -61 164 -68 40 -10 41 -22 3 -40 -32 -15 -37 -15
-73 1 -145 64 -205 82 -349 105 -38 7 -89 16 -112 21 -86 19 -219 10 -344 -22
-46 -12 -113 14 -219 85 -78 52 -245 211 -295 281 -16 22 -46 63 -66 90 -37
50 -99 151 -99 162 0 3 10 2 23 -2 12 -4 40 -11 62 -15z m2197 -751 c63 -13
125 -28 153 -39 41 -15 144 -69 155 -80 3 -3 21 -17 40 -30 69 -48 180 -177
180 -209 0 -6 3 -11 8 -11 14 0 60 -133 83 -241 24 -114 -32 -320 -125 -459
-46 -68 -144 -160 -211 -196 -11 -6 -37 -21 -58 -32 -21 -12 -44 -22 -52 -22
-9 0 -23 -4 -33 -9 -29 -15 -93 -29 -187 -41 -73 -9 -107 -8 -180 4 -117 20
-146 26 -170 36 -11 4 -36 14 -55 21 -19 7 -47 21 -62 31 -14 10 -29 18 -33
18 -12 0 -90 65 -138 115 -69 72 -141 200 -163 290 -13 55 -16 248 -4 295 33
131 64 198 133 290 49 63 68 83 122 126 44 34 204 114 228 114 9 0 19 5 22 10
3 6 21 10 38 11 18 0 41 4 52 9 29 12 194 12 257 -1z m1163 -29 c101 -18 111
-21 183 -52 43 -19 113 -68 161 -113 42 -39 125 -155 147 -205 27 -62 33 -77
43 -110 25 -88 33 -180 21 -248 -25 -145 -49 -208 -111 -302 -74 -112 -187
-189 -335 -229 -54 -14 -195 -14 -231 0 -15 6 -37 15 -48 19 -60 23 -231 112
-247 128 -6 6 -1 23 10 44 89 158 107 226 107 413 -1 152 -12 214 -59 320 -8
17 -23 51 -35 76 -20 45 -84 137 -104 150 -13 9 0 29 18 29 8 0 29 8 47 18 18
10 47 22 63 26 17 4 48 12 70 17 103 27 214 34 300 19z m764 -31 c66 -21 76
-25 141 -57 86 -42 186 -123 244 -197 50 -64 116 -187 116 -216 0 -10 4 -20 9
-23 30 -19 30 -343 0 -362 -5 -3 -9 -16 -9 -29 0 -13 -4 -27 -10 -30 -5 -3
-10 -15 -10 -26 0 -10 -4 -19 -10 -19 -5 0 -10 -5 -10 -11 0 -38 -154 -198
-226 -235 -24 -13 -31 -12 -73 13 -25 15 -59 34 -76 43 -16 8 -32 17 -35 20
-3 3 -25 16 -50 29 -25 13 -49 27 -53 31 -4 4 4 30 18 57 14 28 25 58 25 66 0
9 4 18 9 21 5 3 11 20 14 38 3 18 12 62 19 98 16 82 16 246 -1 325 -6 33 -15
75 -18 93 -3 18 -9 35 -14 38 -5 3 -9 13 -9 22 0 27 -77 174 -112 212 -17 19
-47 52 -67 73 l-35 37 94 0 c51 0 110 -5 129 -11z m-3149 -23 c19 -4 44 -11
55 -15 11 -5 38 -14 60 -21 22 -7 58 -21 79 -31 22 -11 46 -19 53 -19 7 0 13
-5 13 -11 0 -10 -29 -68 -40 -79 -3 -3 -11 -17 -18 -32 -33 -75 -47 -117 -82
-258 -18 -71 -2 -350 21 -375 5 -5 9 -19 9 -32 0 -13 5 -33 12 -46 23 -45 28
-57 28 -68 0 -6 9 -24 21 -40 l20 -29 -48 -20 c-26 -11 -56 -24 -65 -30 -10
-5 -23 -10 -29 -10 -9 0 -147 -62 -201 -91 -10 -5 -26 -9 -36 -9 -10 0 -23 -5
-29 -11 -11 -11 -287 -7 -338 5 -43 11 -170 73 -185 91 -7 8 -17 15 -23 15
-14 0 -89 78 -123 130 -69 103 -94 192 -94 332 0 112 11 158 60 263 54 112
130 203 224 267 76 52 163 98 186 98 11 0 22 5 25 10 3 6 18 10 33 10 15 0 34
5 42 10 16 11 311 7 370 -4z m2947 -1257 c73 -29 118 -56 175 -104 89 -73 188
-207 188 -254 0 -10 3 -21 7 -25 16 -16 32 -105 33 -178 0 -71 -11 -143 -30
-193 -5 -11 -14 -36 -21 -55 -7 -19 -21 -47 -31 -62 -10 -14 -18 -29 -18 -32
0 -10 -50 -67 -108 -122 -52 -51 -140 -101 -217 -124 -63 -18 -316 -3 -331 21
-3 5 -14 9 -25 9 -23 0 -36 25 -22 43 21 26 50 110 75 217 13 52 16 257 5 315
-9 48 -26 112 -37 140 -16 43 -75 161 -93 188 l-18 27 35 0 c19 0 38 5 41 10
3 6 19 10 35 10 16 0 32 5 35 10 3 6 14 10 25 10 10 0 44 14 76 31 33 18 70
38 84 45 14 8 43 29 65 48 22 20 41 35 42 36 1 0 15 -5 30 -11z m-1139 -18 c9
-5 31 -14 47 -21 17 -7 38 -16 47 -21 10 -5 23 -9 30 -9 18 -1 163 -75 178
-90 3 -3 21 -17 40 -30 19 -13 40 -29 45 -35 22 -23 91 -112 103 -134 51 -90
59 -110 82 -221 17 -77 9 -181 -22 -295 -14 -54 -46 -133 -58 -145 -3 -3 -11
-17 -19 -32 -32 -61 -186 -190 -261 -217 -19 -7 -44 -16 -55 -21 -66 -25 -104
-30 -218 -30 -69 0 -136 4 -149 9 -13 5 -41 14 -63 20 -89 27 -170 76 -240
146 -68 68 -135 175 -135 216 0 10 -4 20 -9 23 -15 10 -24 77 -24 191 0 114 9
181 24 191 5 3 9 13 9 23 0 50 122 231 156 231 8 0 22 4 32 9 23 12 60 26 102
41 83 29 126 49 180 84 25 16 47 33 48 38 2 4 9 8 15 8 7 1 30 19 52 40 46 45
40 43 63 31z m-1393 -21 c10 -17 115 -85 195 -126 65 -35 104 -49 256 -95 17
-5 51 -9 77 -9 26 0 47 -3 47 -8 0 -4 -13 -32 -29 -63 -38 -74 -71 -169 -71
-205 0 -17 -5 -35 -11 -41 -6 -6 -9 -61 -6 -154 5 -150 13 -215 28 -225 5 -3
9 -16 9 -29 0 -13 4 -26 9 -29 19 -12 18 -57 -1 -81 -40 -51 -162 -131 -253
-165 -84 -32 -216 -53 -287 -46 -107 10 -153 18 -162 27 -6 5 -17 9 -25 9 -29
0 -177 81 -226 123 -78 68 -167 214 -191 312 -13 57 -16 258 -4 300 28 93 60
156 119 235 98 130 199 197 406 268 40 13 112 15 120 2z m-1150 -95 c111 -58
196 -83 317 -92 65 -4 67 -5 55 -26 -7 -12 -14 -24 -17 -27 -14 -13 -64 -130
-79 -182 -6 -21 -16 -55 -22 -75 -15 -47 -14 -314 0 -342 6 -11 11 -33 11 -50
0 -16 5 -33 10 -36 6 -3 10 -15 10 -26 0 -10 4 -27 9 -37 25 -48 41 -93 36
-102 -8 -14 -178 -13 -212 1 -215 87 -336 218 -392 425 -13 49 -15 224 -2 256
5 13 15 43 22 68 14 50 36 92 82 160 26 39 96 120 104 120 1 0 32 -16 68 -35z
m4286 -68 c30 -29 60 -63 67 -76 42 -73 51 -92 71 -149 18 -51 23 -85 23 -175
0 -117 -10 -171 -45 -247 -24 -52 -85 -143 -119 -180 -27 -29 -104 -90 -113
-90 -4 0 -20 -9 -37 -21 -40 -29 -46 -18 -10 18 33 32 132 176 132 191 0 5 7
24 16 42 49 97 77 330 54 440 -28 133 -39 164 -91 257 -35 62 -18 59 52 -10z
m387 -57 c20 -16 120 -91 222 -167 153 -113 218 -169 375 -327 255 -256 418
-454 614 -743 45 -67 86 -125 92 -128 27 -17 -8 -41 -183 -129 -257 -127 -589
-259 -853 -336 -33 -10 -67 -21 -76 -25 -14 -5 -21 7 -39 62 -68 206 -206 509
-325 716 l-57 98 41 41 c53 52 123 157 160 240 96 214 89 515 -17 721 -8 15
11 6 46 -23z m-5163 -7 c-37 -88 -56 -329 -36 -449 29 -168 111 -338 218 -446
l56 -56 -36 -59 c-43 -72 -191 -366 -218 -436 -11 -27 -28 -69 -38 -91 -37
-86 -84 -211 -103 -273 -7 -24 -17 -43 -23 -43 -9 0 -299 99 -440 150 -184 67
-685 305 -685 325 0 16 172 272 269 400 101 135 240 300 347 414 144 153 446
415 614 534 71 50 86 56 75 30z m-868 -309 c-3 -3 -12 -4 -19 -1 -8 3 -5 6 6
6 11 1 17 -2 13 -5z m4504 -733 c19 -18 84 -52 124 -66 83 -28 138 -35 289
-35 l163 0 12 -47 c7 -27 17 -64 23 -83 14 -51 -3 -253 -23 -266 -5 -3 -9 -13
-9 -24 0 -38 -113 -224 -162 -266 -36 -30 -138 -97 -173 -113 -16 -7 -38 -17
-47 -22 -10 -5 -27 -9 -37 -9 -11 0 -23 -4 -26 -10 -3 -5 -23 -10 -43 -10 -20
0 -54 -5 -76 -11 -28 -8 -62 -8 -125 1 -97 13 -121 20 -206 62 -87 42 -99 53
-91 80 41 134 49 177 49 268 1 98 -10 162 -48 287 -6 18 -2 25 21 34 16 6 46
20 67 30 22 11 43 19 48 19 21 0 132 84 187 140 31 33 58 59 60 60 2 0 12 -8
23 -19z m-1196 -101 c62 -42 173 -100 195 -100 9 0 20 -4 26 -8 5 -5 27 -13
49 -19 93 -25 138 -33 189 -33 58 0 66 -5 85 -60 7 -19 17 -44 21 -55 18 -46
32 -135 26 -166 -3 -19 -9 -55 -12 -82 -4 -26 -11 -50 -15 -53 -5 -3 -9 -14
-9 -25 0 -21 -4 -31 -64 -143 -41 -75 -213 -226 -258 -226 -8 0 -18 -4 -24 -8
-10 -10 -63 -25 -144 -42 -68 -15 -228 -4 -285 19 -145 59 -248 133 -308 221
-17 25 -33 47 -36 50 -19 16 -60 119 -73 180 -25 119 -20 179 25 320 24 73 33
90 53 90 14 0 46 13 172 71 73 34 160 91 216 143 l39 36 41 -37 c23 -21 64
-54 91 -73z m-1406 53 c55 -49 82 -66 171 -109 72 -34 88 -41 130 -52 19 -6
51 -15 71 -21 19 -6 64 -11 100 -11 71 0 99 -11 83 -32 -12 -15 -29 -73 -40
-133 -17 -87 -4 -317 17 -331 5 -3 9 -13 9 -23 0 -10 10 -42 22 -71 21 -51 21
-52 2 -64 -63 -37 -243 -41 -329 -7 -175 70 -289 175 -364 336 -48 102 -52
121 -58 245 -6 128 12 188 84 278 19 23 38 42 42 42 4 0 31 -21 60 -47z m-476
-17 c43 -16 56 -25 51 -36 -12 -28 -23 -204 -17 -275 19 -247 130 -464 311
-606 41 -33 92 -64 113 -71 47 -14 81 -46 38 -35 -14 4 -57 11 -95 17 -66 9
-122 19 -239 40 -30 6 -79 14 -107 19 -148 26 -516 117 -532 132 -6 5 -3 24 6
46 9 21 44 110 79 198 65 166 206 460 266 553 26 42 38 52 51 46 9 -4 43 -16
75 -28z m4175 -26 c142 -249 234 -447 324 -694 15 -44 24 -84 20 -88 -26 -26
-516 -132 -772 -168 -47 -6 -111 -17 -142 -24 -76 -16 -97 -4 -38 22 44 20
177 147 232 222 58 81 112 216 138 346 11 53 9 224 -2 337 -3 27 1 29 92 61
52 18 101 33 109 32 7 0 25 -21 39 -46z m-6090 -519 c147 -85 395 -198 643
-292 169 -63 396 -139 418 -139 38 0 42 -22 20 -106 -12 -43 -25 -95 -29 -114
-4 -19 -17 -78 -29 -130 -42 -182 -82 -431 -100 -630 -6 -63 -16 -161 -21
-218 -6 -56 -10 -136 -10 -177 l0 -75 -741 0 -741 0 6 108 c30 503 172 1102
357 1509 10 23 19 44 19 47 0 17 121 256 130 256 6 0 42 -18 78 -39z m8020
-81 c29 -60 58 -125 64 -142 6 -18 14 -37 18 -43 8 -11 53 -126 104 -265 29
-80 70 -212 116 -380 6 -19 19 -75 30 -125 12 -49 25 -108 30 -130 5 -22 14
-71 20 -110 6 -38 13 -83 16 -100 19 -115 54 -484 47 -497 -2 -5 -337 -8 -744
-8 l-739 0 0 58 c-1 165 -42 582 -80 795 -5 31 -14 81 -19 110 -25 143 -83
375 -111 444 -12 29 -1 36 90 63 142 41 491 161 555 190 11 5 70 30 130 56
116 49 363 169 380 185 25 24 42 5 93 -101z m-3531 -393 c45 -31 64 -41 131
-68 48 -20 66 -26 112 -39 25 -6 59 -16 76 -21 17 -5 38 -9 47 -9 18 0 23 -25
7 -35 -5 -3 -10 -14 -10 -25 0 -34 -45 -104 -111 -175 -134 -142 -340 -206
-511 -161 -158 42 -227 88 -275 184 -15 32 -29 60 -31 63 -1 3 17 11 40 19 98
29 164 53 173 61 5 5 17 9 27 9 10 0 18 5 18 10 0 6 6 10 13 10 20 0 117 78
182 146 33 35 61 63 62 64 2 0 24 -15 50 -33z m-1317 -59 c80 -73 107 -92 200
-139 97 -48 194 -79 250 -79 15 0 36 -3 45 -6 27 -11 45 -60 45 -122 l0 -59
-42 -20 c-81 -39 -99 -43 -180 -43 -76 0 -127 10 -170 31 -10 5 -24 9 -31 9
-18 0 -67 23 -67 33 0 4 -7 7 -16 7 -26 0 -177 160 -203 215 -13 28 -27 58
-32 67 -5 10 -9 31 -9 47 0 26 6 33 43 49 23 11 51 27 62 36 32 25 55 19 105
-26z m-1755 -1 c17 -4 82 -20 145 -37 63 -17 133 -35 155 -39 22 -5 85 -19
140 -31 55 -12 125 -25 155 -30 30 -5 96 -15 145 -23 223 -36 447 -58 543 -53
l51 2 41 -84 c86 -179 205 -290 390 -365 184 -74 443 -77 582 -6 20 10 40 19
43 19 3 0 4 -156 3 -347 l-3 -348 -1329 -3 -1328 -2 6 122 c21 390 74 755 153
1058 14 52 29 113 34 134 13 51 18 59 32 48 7 -5 26 -12 42 -15z m5111 -4 c3
-16 9 -39 14 -53 9 -27 62 -243 79 -325 10 -47 29 -158 51 -300 19 -116 39
-342 46 -502 l7 -163 -1332 0 -1331 0 0 325 c0 260 3 325 13 325 7 0 53 -9
103 -20 259 -57 531 19 715 200 73 72 163 201 181 261 10 36 19 44 41 40 16
-3 295 20 372 30 183 24 434 66 585 99 139 30 412 98 418 105 14 13 32 3 38
-22z m-7219 -90 c-3 -10 -5 -4 -5 12 0 17 2 24 5 18 2 -7 2 -21 0 -30z m-140
-289 c-3 -3 -12 -4 -19 -1 -8 3 -5 6 6 6 11 1 17 -2 13 -5z m9299 -1272 c-3
-20 -8 -93 -11 -162 -10 -212 -42 -422 -115 -745 -40 -178 -177 -557 -272
-755 -28 -58 -66 -137 -84 -177 l-35 -71 -65 39 c-235 143 -756 361 -1113 465
-7 3 -11 12 -8 22 14 47 51 181 57 212 37 169 53 243 61 288 5 28 14 78 19
110 27 151 56 406 70 622 6 96 13 180 14 185 2 7 257 9 746 7 l742 -2 -6 -38z
m-7576 -29 c0 -37 4 -105 9 -152 6 -47 15 -138 21 -201 16 -161 39 -335 60
-445 35 -186 100 -454 126 -519 8 -21 11 -42 7 -46 -4 -4 -39 -17 -78 -30
-133 -43 -380 -131 -422 -151 -24 -10 -49 -19 -56 -19 -7 0 -17 -4 -22 -8 -6
-5 -26 -15 -45 -22 -19 -7 -73 -31 -118 -52 -46 -21 -86 -38 -89 -38 -8 0
-274 -135 -313 -159 -19 -11 -41 -21 -47 -21 -29 0 -213 414 -295 665 -118
364 -192 759 -213 1148 l-7 117 741 0 741 0 0 -67z m2920 -448 l0 -515 -47 0
c-75 0 -453 -18 -618 -30 -177 -13 -377 -34 -570 -61 -38 -5 -104 -14 -145
-20 -121 -16 -353 -60 -630 -119 -100 -21 -395 -95 -423 -106 -10 -3 -17 -4
-17 0 0 3 -16 69 -35 146 -20 77 -40 160 -44 183 -5 23 -20 98 -34 167 -41
203 -69 417 -87 665 -5 72 -12 147 -14 168 l-4 37 1334 0 1334 0 0 -515z
m2916 498 c-2 -10 -7 -72 -11 -138 -11 -227 -42 -464 -91 -710 -78 -391 -111
-514 -134 -500 -10 6 -79 25 -267 74 -156 41 -499 111 -693 141 -422 65 -687
91 -1139 110 -129 6 -256 10 -283 10 l-48 0 0 515 0 515 1336 0 c1267 0 1335
-1 1330 -17z m2001 -545 c-3 -8 -6 -5 -6 6 -1 11 2 17 5 13 3 -3 4 -12 1 -19z
m-9560 -120 c-3 -8 -6 -5 -6 6 -1 11 2 17 5 13 3 -3 4 -12 1 -19z m4643 -1328
l0 -720 -22 0 c-46 0 -405 -31 -468 -39 -220 -31 -364 -60 -574 -115 -179 -47
-386 -117 -474 -159 -27 -13 -17 -21 -123 118 -174 230 -371 552 -484 790 -90
191 -102 216 -165 372 l-58 142 31 10 c92 29 456 113 677 156 456 90 1015 148
1510 158 63 2 123 4 133 5 16 2 17 -38 17 -718z m760 700 c113 -6 243 -15 290
-20 47 -5 128 -14 180 -20 117 -13 235 -28 318 -40 215 -33 259 -41 387 -65
82 -16 118 -24 310 -70 61 -15 139 -33 175 -42 131 -30 202 -54 197 -66 -215
-541 -374 -841 -654 -1234 -59 -84 -112 -159 -118 -168 -9 -14 -17 -13 -75 10
-342 136 -674 215 -1120 264 -105 12 -337 31 -376 31 l-24 0 0 718 0 717 152
-2 c84 -1 245 -7 358 -13z m-5183 -192 c-3 -8 -6 -5 -6 6 -1 11 2 17 5 13 3
-3 4 -12 1 -19z m7573 -277 c14 -5 57 -20 95 -35 39 -15 95 -37 125 -49 30
-11 78 -30 105 -42 28 -13 79 -35 115 -51 84 -36 369 -180 395 -200 19 -14 19
-15 1 -47 -23 -39 -95 -148 -160 -242 -255 -367 -656 -782 -1008 -1042 -51
-38 -99 -73 -106 -77 -7 -4 -40 15 -85 51 -139 112 -348 244 -499 316 -37 18
-67 36 -68 40 0 5 20 34 44 65 297 387 557 852 712 1272 19 52 39 105 44 117
9 21 9 21 137 -24 70 -24 139 -48 153 -52z m-5750 77 c0 -17 103 -274 151
-376 21 -46 39 -86 39 -89 0 -10 125 -253 192 -372 107 -192 353 -555 404
-597 8 -6 14 -14 14 -17 0 -3 -51 -33 -112 -67 -228 -126 -386 -225 -471 -293
-74 -61 -74 -61 -105 -37 -15 11 -70 53 -122 92 -369 278 -748 682 -1017 1083
-139 208 -137 205 -116 221 22 17 303 159 393 198 67 30 245 101 290 117 14 4
115 40 225 78 207 72 235 79 235 59z m-1680 -164 c0 -23 -2 -24 -15 -10 -8 8
-15 19 -15 25 0 6 7 11 15 11 9 0 15 -10 15 -26z m60 -38 c0 -2 -7 -6 -15 -10
-8 -3 -15 -1 -15 4 0 6 7 10 15 10 8 0 15 -2 15 -4z m8660 -111 c0 -8 -2 -15
-4 -15 -2 0 -6 7 -10 15 -3 8 -1 15 4 15 6 0 10 -7 10 -15z m-8363 -467 c-3
-8 -6 -5 -6 6 -1 11 2 17 5 13 3 -3 4 -12 1 -19z m103 -134 c0 -14 -3 -14 -15
-4 -8 7 -15 14 -15 16 0 2 7 4 15 4 8 0 15 -7 15 -16z m157 -226 c-3 -8 -6 -5
-6 6 -1 11 2 17 5 13 3 -3 4 -12 1 -19z m3660 -796 c2 -498 0 -642 -10 -642
-15 0 -137 50 -226 92 -309 146 -684 432 -957 728 -53 58 -117 126 -141 152
-52 55 -57 49 97 101 132 44 284 84 510 133 159 35 607 85 710 80 13 -1 15
-81 17 -644z m583 623 c315 -30 616 -93 918 -191 78 -26 142 -50 142 -55 0
-17 -411 -420 -511 -502 -192 -156 -398 -293 -604 -401 -104 -55 -244 -116
-265 -116 -10 0 -15 1272 -6 1281 7 7 160 -1 326 -16z m-2145 -407 c149 -185
415 -448 616 -609 109 -88 334 -244 373 -258 44 -17 31 -33 -21 -26 -503 64
-1052 254 -1495 517 -65 39 -118 73 -118 78 0 9 260 183 340 227 30 17 91 50
135 73 44 23 84 47 90 51 18 17 30 9 80 -53z m3603 -20 c147 -81 396 -242 419
-270 13 -15 4 -20 -162 -116 -39 -22 -275 -138 -366 -180 -170 -77 -425 -165
-649 -223 -140 -36 -353 -79 -394 -79 -17 0 -52 -6 -77 -14 -70 -21 -77 -4
-11 28 262 128 725 521 1040 884 25 28 48 52 50 52 2 0 70 -37 150 -82z m1222
-58 c0 -5 -7 -10 -16 -10 -8 0 -12 5 -9 10 3 6 10 10 16 10 5 0 9 -4 9 -10z
m-6123 -142 c-3 -8 -6 -5 -6 6 -1 11 2 17 5 13 3 -3 4 -12 1 -19z m137 -105
c-5 -5 -12 -12 -16 -18 -4 -6 -8 -2 -8 8 0 9 7 17 17 17 9 0 12 -3 7 -7z m586
-353 c0 -5 -8 -10 -17 -10 -15 0 -16 2 -3 10 19 12 20 12 20 0z m1297 -486
c-3 -3 -12 -4 -19 -1 -8 3 -5 6 6 6 11 1 17 -2 13 -5z m400 -60 c-3 -3 -12 -4
-19 -1 -8 3 -5 6 6 6 11 1 17 -2 13 -5z m420 0 c-3 -3 -12 -4 -19 -1 -8 3 -5
6 6 6 11 1 17 -2 13 -5z m740 0 c-3 -3 -12 -4 -19 -1 -8 3 -5 6 6 6 11 1 17
-2 13 -5z m3171 -1621 c-10 -2 -28 -2 -40 0 -13 2 -5 4 17 4 22 1 32 -1 23 -4z
m-6691 -2439 c-3 -3 -12 -4 -19 -1 -8 3 -5 6 6 6 11 1 17 -2 13 -5z m3676 -1
c-7 -2 -21 -2 -30 0 -10 3 -4 5 12 5 17 0 24 -2 18 -5z m2264 1 c-3 -3 -12 -4
-19 -1 -8 3 -5 6 6 6 11 1 17 -2 13 -5z"/>
<path d="M10983 18875 c-13 -5 -23 -13 -23 -17 0 -5 -6 -8 -13 -8 -7 0 -22 -8
-33 -17 -10 -10 -37 -31 -59 -47 -22 -16 -92 -81 -156 -145 -169 -170 -298
-372 -390 -608 -18 -46 -32 -78 -40 -95 -5 -10 -9 -27 -9 -37 0 -11 -4 -23
-10 -26 -5 -3 -10 -17 -10 -30 0 -13 -4 -27 -10 -30 -5 -3 -10 -19 -10 -36 0
-16 -4 -29 -9 -29 -5 0 -11 -15 -14 -32 -4 -18 -9 -49 -12 -68 -4 -19 -10 -44
-15 -55 -5 -11 -11 -38 -15 -60 -4 -22 -11 -60 -16 -85 -40 -181 -74 -742 -52
-845 8 -34 13 -40 37 -43 l29 -4 -8 69 c-13 104 -11 516 3 623 18 142 43 279
62 345 7 22 14 55 17 73 3 18 9 35 14 38 5 3 9 16 9 29 0 13 5 27 10 30 6 3
10 15 10 26 0 10 5 28 10 39 6 11 15 29 20 40 6 11 10 29 10 40 0 11 5 20 10
20 6 0 10 7 10 15 0 8 4 23 9 33 5 9 38 76 72 147 35 72 67 132 71 133 5 2 8
8 8 14 0 9 57 98 70 108 3 3 17 21 30 40 13 19 29 40 35 46 5 6 21 26 35 44
37 50 189 202 230 231 95 65 122 92 118 119 -3 22 -6 24 -25 15z"/>
<path d="M12419 18225 c-4 -3 -42 -10 -85 -16 -132 -16 -158 -20 -179 -29 -21
-9 -58 -18 -113 -27 -18 -3 -35 -9 -38 -14 -3 -5 -16 -9 -29 -9 -13 0 -27 -4
-30 -10 -3 -5 -15 -10 -26 -10 -10 0 -27 -4 -37 -9 -9 -5 -28 -13 -42 -19 -67
-26 -213 -95 -220 -103 -3 -3 -20 -12 -37 -20 -18 -8 -33 -17 -33 -21 0 -5 -5
-8 -11 -8 -10 0 -128 -76 -139 -90 -3 -3 -21 -17 -40 -30 -92 -64 -303 -277
-369 -374 -8 -12 -18 -23 -21 -26 -18 -14 -87 -126 -134 -215 -12 -22 -23 -42
-26 -45 -3 -3 -10 -16 -16 -30 -6 -14 -22 -47 -34 -75 -12 -27 -26 -58 -31
-67 -5 -10 -9 -25 -9 -33 0 -8 -4 -23 -9 -33 -24 -48 -34 -72 -30 -76 3 -3 25
14 49 37 25 24 74 64 110 90 36 27 72 54 81 61 9 7 45 33 80 56 35 24 66 47
67 52 2 4 9 8 16 8 7 0 21 8 32 18 10 9 31 23 47 31 15 8 27 18 27 23 0 4 5 8
11 8 5 0 37 18 69 40 32 22 64 40 69 40 6 0 11 3 11 8 0 4 15 13 33 21 17 8
43 22 57 31 70 49 385 208 498 251 71 28 125 50 144 60 10 5 25 9 33 9 8 0 25
5 38 12 48 24 57 28 76 28 11 0 23 5 26 10 3 6 17 10 30 10 13 0 27 5 30 10 3
6 15 10 26 10 10 0 27 4 37 9 9 5 37 15 62 21 85 24 115 33 138 41 13 5 34 9
47 9 13 0 26 4 29 9 3 5 20 11 38 14 18 3 56 11 83 17 76 17 134 28 195 39 30
5 63 12 72 16 28 11 91 -15 124 -52 56 -61 52 -164 -7 -202 -59 -36 -92 -51
-114 -51 -13 0 -26 -4 -29 -9 -3 -4 -29 -12 -58 -15 -110 -15 -128 -18 -134
-27 -3 -5 -15 -9 -26 -9 -12 0 -35 -4 -52 -9 -17 -5 -51 -15 -76 -22 -87 -23
-115 -32 -132 -40 -10 -5 -27 -9 -37 -9 -11 0 -23 -4 -26 -10 -3 -5 -17 -10
-30 -10 -13 0 -27 -4 -30 -10 -3 -5 -17 -10 -30 -10 -13 0 -27 -4 -30 -10 -3
-5 -15 -10 -26 -10 -10 0 -27 -4 -37 -9 -19 -10 -79 -34 -144 -60 -38 -14 -82
-33 -100 -42 -10 -5 -25 -9 -33 -9 -8 0 -15 -4 -15 -10 0 -5 -6 -10 -14 -10
-13 0 -28 -7 -134 -59 -24 -11 -50 -21 -57 -21 -7 0 -15 -4 -17 -8 -1 -4 -37
-25 -78 -45 -72 -36 -118 -62 -205 -114 -22 -13 -48 -26 -57 -30 -10 -3 -18
-9 -18 -14 0 -5 -5 -9 -10 -9 -13 0 -164 -100 -168 -112 -2 -4 -9 -8 -15 -8
-7 0 -24 -10 -39 -23 -14 -12 -52 -41 -85 -64 -32 -23 -69 -53 -83 -66 -14
-12 -41 -34 -60 -47 -19 -14 -60 -50 -91 -80 -30 -30 -70 -67 -88 -82 -33 -29
-24 -37 21 -19 13 5 43 14 68 21 25 6 59 16 77 21 18 6 104 10 191 11 147 0
229 -9 287 -33 53 -21 118 -19 295 12 30 5 80 14 110 19 103 17 226 43 285 60
50 14 111 30 148 37 15 3 30 9 33 14 3 5 16 9 29 9 13 0 27 5 30 10 3 6 15 10
26 10 10 0 27 4 37 9 16 8 40 18 95 40 81 32 315 154 369 192 14 11 31 19 37
19 6 0 11 5 11 10 0 6 5 10 11 10 10 0 98 56 109 70 3 3 21 17 40 30 19 13 37
27 40 30 3 3 21 17 42 32 20 15 42 33 50 40 7 7 43 38 78 68 83 71 190 178
260 260 30 36 57 67 60 70 3 3 25 30 50 60 25 30 47 57 50 60 3 3 17 21 31 40
15 19 39 49 53 65 14 17 26 36 26 43 0 6 5 12 10 12 6 0 10 6 10 14 0 8 4 16
10 18 5 2 11 14 12 27 3 22 -9 30 -107 79 -60 30 -118 58 -127 63 -10 5 -24 9
-33 9 -8 0 -30 9 -50 20 -20 11 -44 20 -55 20 -10 0 -22 5 -25 10 -3 6 -15 10
-26 10 -10 0 -27 4 -37 9 -29 14 -87 31 -110 31 -11 0 -23 4 -26 9 -3 5 -23
11 -43 14 -21 3 -63 11 -93 17 -30 5 -84 15 -120 21 -73 12 -591 24 -601 14z"/>
<path d="M10728 16463 c7 -3 16 -2 19 1 4 3 -2 6 -13 5 -11 0 -14 -3 -6 -6z"/>
<path d="M8395 18037 c9 -65 26 -149 36 -175 5 -13 9 -34 9 -47 0 -13 5 -27
10 -30 6 -3 10 -15 10 -27 0 -25 37 -144 69 -220 6 -16 15 -38 20 -50 13 -34
75 -162 81 -168 3 -3 10 -14 16 -25 27 -50 39 -70 45 -75 3 -3 21 -27 39 -55
84 -122 194 -227 349 -331 42 -28 91 -57 109 -65 17 -7 32 -17 32 -21 0 -5 9
-8 19 -8 11 0 21 -3 23 -7 3 -8 60 -37 128 -66 61 -26 104 -44 140 -60 63 -28
128 -47 166 -50 l37 -2 -2 69 c-1 38 -7 80 -12 93 -5 13 -9 38 -9 55 0 18 -4
45 -9 62 -5 17 -15 51 -22 76 -7 25 -16 49 -21 55 -4 5 -8 17 -8 27 0 10 -4
27 -10 38 -5 11 -14 29 -20 40 -5 11 -10 27 -10 35 0 8 -4 15 -10 15 -5 0 -10
5 -10 10 0 15 -43 105 -52 108 -4 2 -8 8 -8 13 0 10 -77 129 -90 139 -3 3 -17
21 -30 40 -39 55 -152 175 -226 240 -82 72 -231 177 -299 210 -16 8 -32 17
-35 20 -6 6 -120 61 -190 92 -25 11 -53 24 -62 29 -10 5 -27 9 -37 9 -11 0
-23 5 -26 10 -3 6 -16 10 -29 10 -12 0 -26 4 -31 9 -6 4 -27 11 -48 14 l-37 6
5 -42z"/>
<path d="M7876 17018 c27 -47 130 -196 143 -208 9 -8 35 -36 58 -63 36 -41
114 -115 182 -169 12 -10 26 -18 31 -18 6 0 10 -4 10 -9 0 -4 30 -23 66 -42
70 -35 138 -42 195 -18 50 20 348 2 489 -30 87 -19 100 -23 106 -32 3 -5 14
-9 25 -9 10 0 29 -5 42 -12 48 -24 57 -28 74 -27 14 0 15 2 3 6 -8 3 -42 17
-75 33 -33 15 -77 33 -97 41 -21 7 -38 17 -38 21 0 4 -9 8 -20 8 -11 0 -20 5
-20 10 0 6 -5 10 -10 10 -10 0 -163 102 -315 209 -38 28 -77 50 -86 50 -8 1
-19 5 -25 9 -5 4 -27 14 -49 21 -22 7 -51 17 -65 23 -14 6 -35 15 -47 19 -13
5 -33 13 -45 18 -13 5 -50 19 -83 31 -33 12 -68 26 -77 31 -10 5 -27 9 -37 9
-11 0 -23 5 -26 10 -3 6 -17 10 -30 10 -13 0 -27 5 -30 10 -3 6 -15 10 -26 10
-10 0 -27 4 -37 9 -9 5 -37 14 -62 21 -25 6 -59 16 -76 21 -42 12 -57 11 -48
-3z"/>
<path d="M9328 16363 c6 -2 18 -2 25 0 6 3 1 5 -13 5 -14 0 -19 -2 -12 -5z"/>
<path d="M9858 16263 c12 -2 32 -2 45 0 12 2 2 4 -23 4 -25 0 -35 -2 -22 -4z"/>
<path d="M9943 16263 c9 -2 23 -2 30 0 6 3 -1 5 -18 5 -16 0 -22 -2 -12 -5z"/>
<path d="M10060 16260 c19 -5 41 -4 50 0 10 6 -1 9 -35 9 -48 -1 -49 -1 -15
-9z"/>
<path d="M9300 15808 c0 -19 2 -20 10 -8 13 19 13 30 0 30 -5 0 -10 -10 -10
-22z"/>
<path d="M9281 15738 c0 -28 2 -30 9 -13 12 28 12 45 0 45 -5 0 -10 -15 -9
-32z"/>
<path d="M10682 15690 c0 -14 2 -19 5 -12 2 6 2 18 0 25 -3 6 -5 1 -5 -13z"/>
<path d="M10679 15658 c-7 -12 -4 -118 2 -118 5 0 9 27 9 60 0 50 -4 71 -11
58z"/>
<path d="M10661 15464 c0 -11 3 -14 6 -6 3 7 2 16 -1 19 -3 4 -6 -2 -5 -13z"/>
<path d="M9910 14969 c-15 -4 10 -7 68 -8 50 -1 92 2 92 7 0 9 -128 11 -160 1z"/>
<path d="M11080 16241 c0 -5 34 -9 75 -9 41 0 75 4 75 9 0 5 -34 9 -75 9 -41
0 -75 -4 -75 -9z"/>
<path d="M11293 16223 c9 -2 23 -2 30 0 6 3 -1 5 -18 5 -16 0 -22 -2 -12 -5z"/>
<path d="M11757 15793 c-3 -5 -1 -17 4 -28 7 -17 8 -17 8 8 1 27 -4 34 -12 20z"/>
<path d="M11003 15645 c0 -44 2 -61 4 -37 2 23 2 59 0 80 -2 20 -4 1 -4 -43z"/>
<path d="M11775 15605 c0 -52 3 -95 7 -95 5 0 8 43 8 95 0 52 -3 95 -7 95 -5
0 -8 -43 -8 -95z"/>
<path d="M11090 15070 c0 -6 7 -10 15 -10 8 0 15 2 15 4 0 2 -7 6 -15 10 -8 3
-15 1 -15 -4z"/>
<path d="M11140 15050 c0 -5 10 -10 23 -10 18 0 19 2 7 10 -19 13 -30 13 -30
0z"/>
<path d="M12081 15824 c0 -11 3 -14 6 -6 3 7 2 16 -1 19 -3 4 -6 -2 -5 -13z"/>
<path d="M12522 15620 c0 -19 2 -27 5 -17 2 9 2 25 0 35 -3 9 -5 1 -5 -18z"/>
<path d="M12021 15194 c0 -11 3 -14 6 -6 3 7 2 16 -1 19 -3 4 -6 -2 -5 -13z"/>
<path d="M8793 16183 c15 -2 37 -2 50 0 12 2 0 4 -28 4 -27 0 -38 -2 -22 -4z"/>
<path d="M8918 16163 c7 -3 16 -2 19 1 4 3 -2 6 -13 5 -11 0 -14 -3 -6 -6z"/>
<path d="M7980 15435 c0 -8 4 -15 10 -15 5 0 7 7 4 15 -4 8 -8 15 -10 15 -2 0
-4 -7 -4 -15z"/>
<path d="M11520 14484 c0 -8 5 -12 10 -9 6 4 8 11 5 16 -9 14 -15 11 -15 -7z"/>
<path d="M12181 14304 c0 -11 3 -14 6 -6 3 7 2 16 -1 19 -3 4 -6 -2 -5 -13z"/>
<path d="M11540 14133 c0 -28 3 -34 10 -23 13 20 13 60 0 60 -5 0 -10 -17 -10
-37z"/>
<path d="M12135 14150 c-3 -5 -1 -10 4 -10 6 0 11 5 11 10 0 6 -2 10 -4 10 -3
0 -8 -4 -11 -10z"/>
<path d="M12115 14110 c-3 -5 -1 -10 4 -10 6 0 11 5 11 10 0 6 -2 10 -4 10 -3
0 -8 -4 -11 -10z"/>
<path d="M12095 14080 c-3 -5 -1 -10 4 -10 6 0 11 5 11 10 0 6 -2 10 -4 10 -3
0 -8 -4 -11 -10z"/>
<path d="M11460 13870 c0 -5 5 -10 10 -10 6 0 10 5 10 10 0 6 -4 10 -10 10 -5
0 -10 -4 -10 -10z"/>
<path d="M10775 14860 c3 -5 8 -10 11 -10 2 0 4 5 4 10 0 6 -5 10 -11 10 -5 0
-7 -4 -4 -10z"/>
<path d="M10810 14846 c0 -2 7 -6 15 -10 8 -3 15 -1 15 4 0 6 -7 10 -15 10 -8
0 -15 -2 -15 -4z"/>
<path d="M11170 14526 c0 -8 5 -18 10 -21 6 -3 10 3 10 14 0 12 -4 21 -10 21
-5 0 -10 -6 -10 -14z"/>
<path d="M10041 14154 c0 -11 3 -14 6 -6 3 7 2 16 -1 19 -3 4 -6 -2 -5 -13z"/>
<path d="M10985 13790 c-3 -5 -2 -10 4 -10 5 0 13 5 16 10 3 6 2 10 -4 10 -5
0 -13 -4 -16 -10z"/>
<path d="M10470 13690 c0 -5 10 -10 23 -10 18 0 19 2 7 10 -19 13 -30 13 -30
0z"/>
<path d="M10758 13683 c7 -3 16 -2 19 1 4 3 -2 6 -13 5 -11 0 -14 -3 -6 -6z"/>
<path d="M10625 13670 c-4 -6 7 -10 27 -10 25 0 29 3 18 10 -19 13 -37 13 -45
0z"/>
<path d="M9660 14680 c20 -13 33 -13 25 0 -3 6 -14 10 -23 10 -15 0 -15 -2 -2
-10z"/>
<path d="M9718 14663 c6 -2 18 -2 25 0 6 3 1 5 -13 5 -14 0 -19 -2 -12 -5z"/>
<path d="M9717 14381 c-4 -19 -5 -36 -2 -39 10 -11 16 7 13 40 l-3 33 -8 -34z"/>
<path d="M8661 14264 c0 -11 3 -14 6 -6 3 7 2 16 -1 19 -3 4 -6 -2 -5 -13z"/>
<path d="M9701 14244 c0 -11 3 -14 6 -6 3 7 2 16 -1 19 -3 4 -6 -2 -5 -13z"/>
<path d="M8682 14160 c0 -14 2 -19 5 -12 2 6 2 18 0 25 -3 6 -5 1 -5 -13z"/>
<path d="M8701 14074 c0 -11 3 -14 6 -6 3 7 2 16 -1 19 -3 4 -6 -2 -5 -13z"/>
<path d="M9468 13703 c7 -3 16 -2 19 1 4 3 -2 6 -13 5 -11 0 -14 -3 -6 -6z"/>
<path d="M9170 13688 c0 -5 54 -8 120 -8 66 0 120 4 120 9 0 5 -52 9 -120 8
-66 -1 -120 -5 -120 -9z"/>
<path d="M7902 14270 c0 -14 2 -19 5 -12 2 6 2 18 0 25 -3 6 -5 1 -5 -13z"/>
<path d="M8341 14244 c0 -11 3 -14 6 -6 3 7 2 16 -1 19 -3 4 -6 -2 -5 -13z"/>
<path d="M12461 14664 c0 -11 3 -14 6 -6 3 7 2 16 -1 19 -3 4 -6 -2 -5 -13z"/>
<path d="M12395 13950 c-16 -17 -16 -20 -3 -15 9 4 19 13 22 21 7 19 2 18 -19
-6z"/>
<path d="M11220 13579 c0 -5 5 -7 10 -4 6 3 10 8 10 11 0 2 -4 4 -10 4 -5 0
-10 -5 -10 -11z"/>
<path d="M11375 13560 c3 -5 8 -10 11 -10 2 0 4 5 4 10 0 6 -5 10 -11 10 -5 0
-7 -4 -4 -10z"/>
<path d="M11408 13543 c7 -3 16 -2 19 1 4 3 -2 6 -13 5 -11 0 -14 -3 -6 -6z"/>
<path d="M11598 13503 c7 -3 16 -2 19 1 4 3 -2 6 -13 5 -11 0 -14 -3 -6 -6z"/>
<path d="M11693 13503 c15 -2 37 -2 50 0 12 2 0 4 -28 4 -27 0 -38 -2 -22 -4z"/>
<path d="M10920 13374 c0 -8 5 -12 10 -9 6 3 10 10 10 16 0 5 -4 9 -10 9 -5 0
-10 -7 -10 -16z"/>
<path d="M10941 13304 c0 -11 3 -14 6 -6 3 7 2 16 -1 19 -3 4 -6 -2 -5 -13z"/>
<path d="M11841 13164 c0 -11 3 -14 6 -6 3 7 2 16 -1 19 -3 4 -6 -2 -5 -13z"/>
<path d="M10920 12835 c0 -8 4 -15 10 -15 5 0 7 7 4 15 -4 8 -8 15 -10 15 -2
0 -4 -7 -4 -15z"/>
<path d="M11255 12729 l-60 -6 73 -1 c39 -1 72 0 72 2 0 9 -29 11 -85 5z"/>
<path d="M10200 13440 c0 -5 5 -10 10 -10 6 0 10 5 10 10 0 6 -4 10 -10 10 -5
0 -10 -4 -10 -10z"/>
<path d="M10443 13363 c9 -2 25 -2 35 0 9 3 1 5 -18 5 -19 0 -27 -2 -17 -5z"/>
<path d="M9481 13063 c-1 -24 4 -43 9 -43 12 0 12 24 0 60 -7 21 -8 19 -9 -17z"/>
<path d="M10642 13075 c0 -16 2 -22 5 -12 2 9 2 23 0 30 -3 6 -5 -1 -5 -18z"/>
<path d="M9500 12964 c0 -8 5 -12 10 -9 6 4 8 11 5 16 -9 14 -15 11 -15 -7z"/>
<path d="M9978 12563 c6 -2 18 -2 25 0 6 3 1 5 -13 5 -14 0 -19 -2 -12 -5z"/>
<path d="M10123 12563 c9 -2 23 -2 30 0 6 3 -1 5 -18 5 -16 0 -22 -2 -12 -5z"/>
<path d="M8980 13400 c0 -5 7 -10 15 -10 8 0 15 5 15 10 0 6 -7 10 -15 10 -8
0 -15 -4 -15 -10z"/>
<path d="M9050 13380 c20 -13 63 -13 55 0 -3 6 -21 10 -38 10 -24 0 -28 -3
-17 -10z"/>
<path d="M9175 13360 c4 -6 11 -8 16 -5 14 9 11 15 -7 15 -8 0 -12 -5 -9 -10z"/>
<path d="M8998 12763 c7 -3 16 -2 19 1 4 3 -2 6 -13 5 -11 0 -14 -3 -6 -6z"/>
<path d="M10855 12480 c3 -5 8 -10 11 -10 2 0 4 5 4 10 0 6 -5 10 -11 10 -5 0
-7 -4 -4 -10z"/>
<path d="M11110 12400 c0 -5 5 -10 10 -10 6 0 10 5 10 10 0 6 -4 10 -10 10 -5
0 -10 -4 -10 -10z"/>
<path d="M10278 12245 c2 -14 8 -25 12 -25 4 0 5 11 2 25 -2 14 -8 25 -12 25
-4 0 -5 -11 -2 -25z"/>
<path d="M10558 12063 c6 -2 18 -2 25 0 6 3 1 5 -13 5 -14 0 -19 -2 -12 -5z"/>
<path d="M10683 12063 c9 -2 23 -2 30 0 6 3 -1 5 -18 5 -16 0 -22 -2 -12 -5z"/>
<path d="M9340 12330 c0 -5 5 -10 11 -10 5 0 7 5 4 10 -3 6 -8 10 -11 10 -2 0
-4 -4 -4 -10z"/>
<path d="M9950 12240 c0 -5 5 -10 11 -10 5 0 7 5 4 10 -3 6 -8 10 -11 10 -2 0
-4 -4 -4 -10z"/>
</g>
</svg>
